<svg width="20" height="20" viewBox="0 0 20 20" fill="none" xmlns="http://www.w3.org/2000/svg">
<g clip-path="url(#clip0_123_2)">
<path d="M12.6804 13.6771C12.562 13.6787 12.4463 13.6414 12.3511 13.571C12.2559 13.5006 12.1864 13.4009 12.1532 13.2872C12.12 13.1736 12.125 13.0521 12.1674 12.9416C12.2098 12.831 12.2872 12.7374 12.3879 12.675C12.8808 12.3673 13.2856 11.9373 13.5628 11.4267C13.8401 10.9161 13.9804 10.3424 13.97 9.76147C13.9597 9.18055 13.799 8.61221 13.5037 8.11184C13.2084 7.61146 12.7885 7.19611 12.285 6.90624C12.2202 6.87238 12.163 6.82577 12.1168 6.76923C12.0705 6.71268 12.0362 6.64736 12.0158 6.5772C11.9955 6.50704 11.9895 6.43348 11.9983 6.36096C12.0071 6.28844 12.0305 6.21845 12.0671 6.15521C12.1037 6.09196 12.1526 6.03676 12.2111 5.99293C12.2695 5.9491 12.3362 5.91755 12.4072 5.90017C12.4781 5.88279 12.5519 5.87994 12.624 5.89179C12.696 5.90365 12.765 5.92997 12.8266 5.96916C13.4896 6.35358 14.042 6.90279 14.4302 7.56354C14.8184 8.22428 15.0292 8.97413 15.0423 9.74036C15.0554 10.5066 14.8702 11.2632 14.5048 11.9368C14.1394 12.6104 13.6061 13.1782 12.9566 13.585C12.8747 13.6403 12.7792 13.6722 12.6804 13.6771V13.6771Z" fill="white"/>
<path d="M13.8775 16.8892C13.7562 16.8884 13.6387 16.847 13.5437 16.7716C13.4487 16.6961 13.3819 16.591 13.3538 16.473C13.3257 16.355 13.338 16.231 13.3888 16.1208C13.4395 16.0106 13.5258 15.9207 13.6337 15.8654C14.7701 15.3055 15.7255 14.4367 16.3905 13.3585C17.0556 12.2804 17.4032 11.0366 17.3936 9.76986C17.384 8.50314 17.0175 7.26479 16.3362 6.19685C15.6549 5.12892 14.6863 4.27466 13.5417 3.73208C13.4756 3.7024 13.4162 3.65978 13.3669 3.60674C13.3176 3.55371 13.2795 3.49133 13.2547 3.42329C13.23 3.35526 13.2191 3.28295 13.2227 3.21064C13.2264 3.13833 13.2445 3.06749 13.276 3.0023C13.3075 2.93711 13.3518 2.8789 13.4062 2.83111C13.4606 2.78332 13.524 2.74692 13.5927 2.72406C13.6614 2.7012 13.734 2.69234 13.8061 2.69801C13.8783 2.70369 13.9486 2.72377 14.0129 2.75708C15.3425 3.38477 16.4683 4.37451 17.261 5.61279C18.0538 6.85106 18.4815 8.28772 18.4951 9.75797C18.5087 11.2282 18.1076 12.6725 17.3378 13.9252C16.568 15.1779 15.4607 16.1883 14.1429 16.8404C14.06 16.8788 13.9687 16.8956 13.8775 16.8892V16.8892Z" fill="white"/>
<path d="M9.74998 17.3658C9.60703 17.3659 9.46547 17.3378 9.33346 17.2829C9.20144 17.2281 9.08159 17.1476 8.98081 17.0462L4.95081 13H2.16665C1.87933 13 1.60378 12.8859 1.40061 12.6827C1.19745 12.4795 1.08331 12.204 1.08331 11.9167V7.58333C1.08331 7.29601 1.19745 7.02046 1.40061 6.8173C1.60378 6.61413 1.87933 6.49999 2.16665 6.49999H4.99415L8.96456 2.49708C9.11416 2.3396 9.30765 2.23072 9.5199 2.18459C9.73216 2.13845 9.95338 2.15718 10.1549 2.23836C10.3563 2.31953 10.5287 2.45939 10.6497 2.63979C10.7707 2.82019 10.8347 3.03279 10.8333 3.24999V16.25C10.8333 16.4648 10.7695 16.6748 10.6499 16.8532C10.5303 17.0316 10.3603 17.1705 10.1616 17.2521C10.0333 17.3169 9.89339 17.3556 9.74998 17.3658ZM2.16665 7.58333V11.9167H5.17831C5.24998 11.917 5.32087 11.9315 5.38689 11.9594C5.45291 11.9873 5.51273 12.028 5.5629 12.0792L9.74998 16.2825V3.24999L5.60623 7.42083C5.55606 7.47201 5.49624 7.51273 5.43022 7.54062C5.36421 7.56851 5.29331 7.58303 5.22165 7.58333H2.16665Z" fill="white"/>
</g>
<defs>
<clipPath id="clip0_123_2">
<rect width="19.5" height="19.5" fill="white"/>
</clipPath>
</defs>
</svg>
