<svg width="29" height="29" viewBox="0 0 29 29" fill="none" xmlns="http://www.w3.org/2000/svg">
<path d="M8.66667 20.3333L12.8652 16.1348M12.8652 16.1348C13.2702 16.5465 13.7527 16.874 14.2849 17.0983C14.8171 17.3227 15.3884 17.4394 15.9659 17.4418C16.5434 17.4442 17.1157 17.3323 17.6498 17.1124C18.1838 16.8926 18.6691 16.5691 19.0775 16.1608C19.4859 15.7525 19.8094 15.2673 20.0294 14.7333C20.2494 14.1994 20.3615 13.6271 20.3592 13.0496C20.3569 12.472 20.2403 11.9007 20.0161 11.3684C19.7919 10.8362 19.4646 10.3536 19.0529 9.94854C18.2303 9.13901 17.1211 8.68733 15.967 8.69189C14.8128 8.69646 13.7072 9.15689 12.891 9.9729C12.0748 10.7889 11.6141 11.8944 11.6093 13.0485C11.6045 14.2027 12.0559 15.312 12.8652 16.1348V16.1348ZM27.625 14.5C27.625 16.2236 27.2855 17.9303 26.6259 19.5227C25.9663 21.1151 24.9995 22.562 23.7808 23.7808C22.562 24.9995 21.1151 25.9663 19.5227 26.6259C17.9303 27.2855 16.2236 27.625 14.5 27.625C12.7764 27.625 11.0697 27.2855 9.47728 26.6259C7.88488 25.9663 6.43799 24.9995 5.21922 23.7808C4.00045 22.562 3.03367 21.1151 2.37408 19.5227C1.71449 17.9303 1.375 16.2236 1.375 14.5C1.375 11.019 2.75781 7.68064 5.21922 5.21922C7.68064 2.75781 11.019 1.375 14.5 1.375C17.981 1.375 21.3194 2.75781 23.7808 5.21922C26.2422 7.68064 27.625 11.019 27.625 14.5Z" stroke="white" stroke-width="2" stroke-linecap="round" stroke-linejoin="round"/>
</svg>
